<svg width="500" height="500" viewBox="0 0 500 500" fill="none" xmlns="http://www.w3.org/2000/svg">
<path d="M500 250C500 388.071 388.071 500 250 500C111.929 500 0 388.071 0 250C0 111.929 111.929 0 250 0C388.071 0 500 111.929 500 250Z" fill="#09090B"/>
<path d="M111.206 297.738V307.73C111.206 318.832 114.917 327.344 122.341 333.265C129.764 339.187 139.193 342.147 150.628 342.147H160.559C175.406 342.147 189.249 337.984 202.089 329.657C215.129 321.33 221.649 313.466 221.649 306.065V296.628L221.348 294.963L220.747 286.913C220.747 285.248 220.747 283.583 220.747 281.917C220.747 259.713 217.637 248.611 211.418 248.611H202.089C196.07 249.536 190.854 249.999 186.44 249.999L171.092 251.941C156.246 251.941 141.199 257.4 125.952 268.317C116.121 275.349 111.206 285.156 111.206 297.738ZM274.614 215.859C274.614 222.705 280.332 226.129 291.767 226.129H307.416L309.222 225.851L360.381 222.798L370.613 221.688C385.058 221.688 392.28 216.877 392.28 207.255V197.263C391.879 195.042 391.678 193.377 391.678 192.267C391.678 181.535 386.963 170.617 377.534 159.515C368.105 148.228 356.77 142.584 343.528 142.584H332.695C316.645 142.584 303.002 149.246 291.767 162.568C280.733 175.706 275.216 190.601 275.216 207.255L274.614 210.863V215.859ZM282.739 272.481C282.739 283.768 285.448 294.593 290.865 304.955C296.482 315.317 302.501 323.088 308.921 328.269C322.764 339.372 340.318 344.923 361.585 344.923C373.221 344.923 382.75 343.812 390.173 341.592C397.797 339.187 407.929 335.671 420.568 331.045C433.207 326.419 439.627 324.106 439.828 324.106C448.856 324.106 453.37 327.159 453.37 333.265C453.37 344.738 441.934 355.84 419.063 366.572C396.192 377.304 373.823 382.67 351.955 382.67C330.087 382.67 312.331 380.45 298.689 376.009C285.046 371.568 271.805 365.184 258.965 356.858C246.125 348.346 238.101 344.09 234.891 344.09C231.681 344.09 223.856 348.068 211.418 356.025C199.179 363.982 186.44 370.365 173.199 375.176C160.158 379.802 143.205 382.115 122.341 382.115C101.676 382.115 83.6201 376.287 68.1721 364.629C52.724 352.972 45 336.411 45 314.947C45 274.979 74.4917 248.426 133.475 235.288C176.81 225.666 198.879 220.578 199.681 220.022C208.308 215.026 212.621 204.849 212.621 189.491C212.621 173.948 208.107 162.013 199.079 153.687C190.252 145.175 178.214 140.919 162.967 140.919C147.92 140.919 133.776 148.783 120.535 164.511C107.294 180.054 96.0588 187.826 86.8301 187.826C81.012 187.826 75.4948 186.161 70.2786 182.83C65.0624 179.499 62.4543 174.503 62.4543 167.842C62.4543 149.893 73.3883 135.83 95.2563 125.653C117.325 115.291 140.296 110.11 164.171 110.11C188.045 110.11 209.11 113.903 227.367 121.49C245.825 129.077 256.859 132.87 260.47 132.87C264.081 132.87 269.899 130.927 277.924 127.041C302.4 115.014 324.469 109 344.13 109H354.663C382.75 109 407.226 117.789 428.091 135.368C437.721 143.509 445.646 153.964 451.865 166.732C458.285 179.314 461.495 190.509 461.495 200.316V208.92C461.495 222.243 457.081 230.755 448.254 234.455C439.627 238.156 414.85 241.209 373.923 243.615C333.196 245.835 311.128 247.223 307.717 247.778C291.065 250.554 282.739 258.788 282.739 272.481Z" fill="white"/>
<path d="M254.284 217.846C254.284 160.595 300.67 114.183 357.889 114.183H372.394C429.614 114.183 476 160.595 476 217.846V288.337C476 345.589 429.614 392 372.394 392H357.889C300.67 392 254.284 345.589 254.284 288.337V217.846Z" fill="#09090B"/>
<path d="M429.163 187.981C421.242 187.981 410.208 179.972 396.063 163.955C382.106 147.938 365.886 139.929 347.403 139.929C329.108 139.929 313.737 148.858 301.289 166.717C288.841 184.391 282.617 209.521 282.617 242.107C282.617 274.693 290.255 300.192 305.532 318.602C320.998 336.828 341.084 345.942 365.792 345.942C379.371 345.942 390.688 344.285 399.741 340.971C408.982 337.657 417.47 334.159 425.203 330.477C433.124 326.611 438.688 324.678 441.894 324.678C447.364 324.678 450.099 328.176 450.099 335.172C450.099 345.85 439.065 356.436 416.998 366.929C394.931 377.423 373.525 382.67 352.778 382.67C312.416 382.67 279.976 370.335 255.457 345.665C245.461 335.54 237.068 322.56 230.278 306.728C223.489 290.71 220.094 273.589 220.094 255.363V241.831C220.094 241.463 220.094 241.002 220.094 240.45C220.094 240.082 220.094 239.714 220.094 239.346C220.094 223.328 223.772 206.759 231.127 189.637C245.65 156.131 269.037 132.933 301.289 120.046C319.961 112.682 338.538 109 357.022 109H363.529C388.99 109 410.586 113.326 428.315 121.979C442.649 128.975 449.816 140.666 449.816 157.051C449.816 167.913 447.552 175.83 443.026 180.8C438.688 185.587 434.067 187.981 429.163 187.981Z" fill="white"/>
</svg>
